<svg enable-background="new 0 0 47.5 47.5" viewBox="0 0 47.5 47.5" xmlns="http://www.w3.org/2000/svg"><path d="m0 0c0 5.326-4.318 9.643-9.643 9.643s-9.643-4.317-9.643-9.643c0-5.357-1.071-16.572-1.071-16.572 0-1.182.96-2.142 2.143-2.142s2.143.96 2.143 2.142c0-1.182.959-2.142 2.143-2.142 1.183 0 2.142.96 2.142 2.142h4.286c0-1.182.96-2.142 2.144-2.142 1.182 0 2.142.96 2.142 2.142 0-1.182.959-2.142 2.143-2.142 1.183 0 2.142.96 2.142 2.142 0 0-1.071 11.215-1.071 16.572" fill="#e7edf1" transform="matrix(1.25 0 0 -1.25 35.80325 20.803875)"/><path d="m0 0c0 2.612 1.711 8 2.365 8s2.365-5.388 2.365-8-1.712-3-2.365-3c-.654 0-2.365.388-2.365 3" fill="#dd2e44" transform="matrix(1.25 0 0 -1.25 20.7935 42.5)"/><path d="m0 0c0-1.5-4.791-4.5-7-4.5s-7 3-7 4.5 4.791 4.5 7 4.5 7-3 7-4.5" fill="#f4900c" transform="matrix(1.25 0 0 -1.25 32.5 29.475)"/><g fill="#292f33"><path d="m0 0c0-.828-.671-1.5-1.5-1.5s-1.5.672-1.5 1.5c0 .829.671 1.5 1.5 1.5s1.5-.671 1.5-1.5" transform="matrix(1.25 0 0 -1.25 17.5 24.375)"/><path d="m0 0c0-.828-.672-1.5-1.5-1.5s-1.5.672-1.5 1.5c0 .829.672 1.5 1.5 1.5s1.5-.671 1.5-1.5" transform="matrix(1.25 0 0 -1.25 33.75 24.375)"/><path d="m32.353836 29.621568c0 .515745-4.382363 1.515432-8.770308 1.515432-4.46702 0-8.448778-1.049783-8.448778-1.561362 0-.540725 3.967196-.705736 8.511635-.705736 4.544442 0 8.707451.26135 8.707451.751666z"/></g><path d="m0 0c0-2.209-1.447-6-2-6-.552 0-2 3.791-2 6s1.448 3 2 3c.553 0 2-.791 2-3" fill="#dd2e44" transform="matrix(1.25 0 0 -1.25 26.25 5)"/><path d="m0 0c0-1.0470413-6.7330055-1.0096655-10.852752-.59497956-1.782236.17939658-3.147248.14202084-3.147248.59497956 0 1.5 4.791 4.5 7 4.5s7-3 7-4.5" fill="#f4c500" transform="matrix(-1.25 0 0 -1.25 15 29.375)"/></svg>