<?xml version="1.0" encoding="UTF-8" standalone="no"?>
<svg
   xmlns:dc="http://purl.org/dc/elements/1.1/"
   xmlns:cc="http://creativecommons.org/ns#"
   xmlns:rdf="http://www.w3.org/1999/02/22-rdf-syntax-ns#"
   xmlns:svg="http://www.w3.org/2000/svg"
   xmlns="http://www.w3.org/2000/svg"
   xmlns:sodipodi="http://sodipodi.sourceforge.net/DTD/sodipodi-0.dtd"
   xmlns:inkscape="http://www.inkscape.org/namespaces/inkscape"
   viewBox="0 0 47.5 47.5"
   style="enable-background:new 0 0 47.5 47.5;"
   xml:space="preserve"
   version="1.1"
   id="svg2"
   inkscape:version="0.91 r13725"
   sodipodi:docname="1f414-twemoji-mod-smile.svg"><sodipodi:namedview
     pagecolor="#ffffff"
     bordercolor="#666666"
     borderopacity="1"
     objecttolerance="10"
     gridtolerance="10"
     guidetolerance="10"
     inkscape:pageopacity="0"
     inkscape:pageshadow="2"
     inkscape:window-width="1346"
     inkscape:window-height="903"
     id="namedview5029"
     showgrid="false"
     inkscape:zoom="5.656854"
     inkscape:cx="-22.330034"
     inkscape:cy="-5.3295155"
     inkscape:window-x="239"
     inkscape:window-y="23"
     inkscape:window-maximized="0"
     inkscape:current-layer="svg2"
     showguides="true"
     inkscape:guide-bbox="true"
     showborder="true" /><metadata
     id="metadata8"><rdf:RDF><cc:Work
         rdf:about=""><dc:format>image/svg+xml</dc:format><dc:type
           rdf:resource="http://purl.org/dc/dcmitype/StillImage" /><dc:title></dc:title></cc:Work></rdf:RDF></metadata><defs
     id="defs6"><clipPath
       id="clipPath16"
       clipPathUnits="userSpaceOnUse"><path
         id="path18"
         d="M 0,38 38,38 38,0 0,0 0,38 Z" /></clipPath></defs><g
     id="g24"
     transform="matrix(1.25,0,0,-1.25,35.80325,20.803875)"
     style="fill:#e7edf1;fill-opacity:1"><path
       inkscape:connector-curvature="0"
       d="m 0,0 c 0,5.326 -4.318,9.643 -9.643,9.643 -5.325,0 -9.643,-4.317 -9.643,-9.643 0,-5.357 -1.071,-16.572 -1.071,-16.572 0,-1.182 0.96,-2.142 2.143,-2.142 1.183,0 2.143,0.96 2.143,2.142 0,-1.182 0.959,-2.142 2.143,-2.142 1.183,0 2.142,0.96 2.142,2.142 l 4.286,0 c 0,-1.182 0.96,-2.142 2.144,-2.142 1.182,0 2.142,0.96 2.142,2.142 0,-1.182 0.959,-2.142 2.143,-2.142 1.183,0 2.142,0.96 2.142,2.142 C 1.071,-16.572 0,-5.357 0,0"
       style="fill:#e7edf1;fill-opacity:1;fill-rule:nonzero;stroke:none"
       id="path26" /></g><g
     id="g32"
     transform="matrix(1.25,0,0,-1.25,20.7935,42.5)"><path
       inkscape:connector-curvature="0"
       d="M 0,0 C 0,2.612 1.711,8 2.365,8 3.019,8 4.73,2.612 4.73,0 4.73,-2.612 3.018,-3 2.365,-3 1.711,-3 0,-2.612 0,0"
       style="fill:#dd2e44;fill-opacity:1;fill-rule:nonzero;stroke:none"
       id="path34" /></g><g
     id="g36"
     transform="matrix(1.25,0,0,-1.25,32.5,29.475)"
     style="fill:#f4900c;fill-opacity:1"><path
       inkscape:connector-curvature="0"
       d="m 0,0 c 0,-1.5 -4.791,-4.5 -7,-4.5 -2.209,0 -7,3 -7,4.5 0,1.5 4.791,4.5 7,4.5 2.209,0 7,-3 7,-4.5"
       style="fill:#f4900c;fill-opacity:1;fill-rule:nonzero;stroke:none"
       id="path38" /></g><g
     id="g44"
     transform="matrix(1.25,0,0,-1.25,17.5,24.375)"><path
       inkscape:connector-curvature="0"
       d="M 0,0 C 0,-0.828 -0.671,-1.5 -1.5,-1.5 -2.329,-1.5 -3,-0.828 -3,0 -3,0.829 -2.329,1.5 -1.5,1.5 -0.671,1.5 0,0.829 0,0"
       style="fill:#292f33;fill-opacity:1;fill-rule:nonzero;stroke:none"
       id="path46" /></g><g
     id="g48"
     transform="matrix(1.25,0,0,-1.25,33.75,24.375)"><path
       inkscape:connector-curvature="0"
       d="M 0,0 C 0,-0.828 -0.672,-1.5 -1.5,-1.5 -2.328,-1.5 -3,-0.828 -3,0 -3,0.829 -2.328,1.5 -1.5,1.5 -0.672,1.5 0,0.829 0,0"
       style="fill:#292f33;fill-opacity:1;fill-rule:nonzero;stroke:none"
       id="path50" /></g><path
     style="opacity:1;fill:#292f33;fill-opacity:1;stroke:none;stroke-width:4;stroke-linecap:square;stroke-linejoin:round;stroke-miterlimit:4;stroke-dasharray:none;stroke-opacity:1"
     d="m 32.353836,29.621568 c 0,0.515745 -4.382363,1.515432 -8.770308,1.515432 -4.46702,0 -8.448778,-1.049783 -8.448778,-1.561362 0,-0.540725 3.967196,-0.705736 8.511635,-0.705736 4.544442,0 8.707451,0.26135 8.707451,0.751666 z"
     id="path5712"
     inkscape:connector-curvature="0"
     sodipodi:nodetypes="sssss" /><g
     id="g28"
     transform="matrix(1.25,0,0,-1.25,26.25,5)"
     style="fill:#dd2e44;fill-opacity:1"><path
       inkscape:connector-curvature="0"
       d="m 0,0 c 0,-2.209 -1.447,-6 -2,-6 -0.552,0 -2,3.791 -2,6 0,2.209 1.448,3 2,3 0.553,0 2,-0.791 2,-3"
       style="fill:#dd2e44;fill-opacity:1;fill-rule:nonzero;stroke:none"
       id="path30" /></g><g
     id="g40"
     transform="matrix(-1.25,0,0,-1.25,15,29.375)"
     style="opacity:1;fill:#f4c500;fill-opacity:1"><path
       inkscape:connector-curvature="0"
       d="M 0,0 C 0,-1.0470413 -6.7330055,-1.0096655 -10.852752,-0.59497956 -12.634988,-0.41558298 -14,-0.45295872 -14,0 c 0,1.5 4.791,4.5 7,4.5 2.209,0 7,-3 7,-4.5"
       style="fill:#f4c500;fill-opacity:1;fill-rule:nonzero;stroke:none"
       id="path42"
       sodipodi:nodetypes="csssc" /></g></svg>