<?xml version="1.0" encoding="UTF-8" standalone="no"?>
<svg
   xmlns:dc="http://purl.org/dc/elements/1.1/"
   xmlns:cc="http://creativecommons.org/ns#"
   xmlns:rdf="http://www.w3.org/1999/02/22-rdf-syntax-ns#"
   xmlns:svg="http://www.w3.org/2000/svg"
   xmlns="http://www.w3.org/2000/svg"
   xmlns:sodipodi="http://sodipodi.sourceforge.net/DTD/sodipodi-0.dtd"
   xmlns:inkscape="http://www.inkscape.org/namespaces/inkscape"
   viewBox="0 0 47.5 47.5"
   style="enable-background:new 0 0 47.5 47.5;"
   xml:space="preserve"
   version="1.1"
   id="svg2"
   inkscape:version="0.91 r13725"
   sodipodi:docname="1f414-twemoji-mod-smile-mask.svg"><sodipodi:namedview
     pagecolor="#ffffff"
     bordercolor="#666666"
     borderopacity="1"
     objecttolerance="10"
     gridtolerance="10"
     guidetolerance="10"
     inkscape:pageopacity="0"
     inkscape:pageshadow="2"
     inkscape:window-width="1158"
     inkscape:window-height="889"
     id="namedview5029"
     showgrid="false"
     inkscape:zoom="11.313708"
     inkscape:cx="22.25256"
     inkscape:cy="23.75"
     inkscape:window-x="14"
     inkscape:window-y="0"
     inkscape:window-maximized="0"
     inkscape:current-layer="svg2"
     showguides="true"
     inkscape:guide-bbox="true" /><metadata
     id="metadata8"><rdf:RDF><cc:Work
         rdf:about=""><dc:format>image/svg+xml</dc:format><dc:type
           rdf:resource="http://purl.org/dc/dcmitype/StillImage" /><dc:title></dc:title></cc:Work></rdf:RDF></metadata><defs
     id="defs6"><clipPath
       id="clipPath16"
       clipPathUnits="userSpaceOnUse"><path
         id="path18"
         d="M 0,38 38,38 38,0 0,0 0,38 Z" /></clipPath></defs><path
     style="fill:#000000;fill-opacity:1;fill-rule:nonzero;stroke:none"
     d="m 23.75,1.25 c -0.69,0 -2.5,0.98875 -2.5,3.75 0,1.1248894 0.306301,2.5693031 0.708984,3.8964844 -5.805006,0.8669614 -10.263671,5.8608896 -10.263672,11.9082036 0,6.696249 -1.33789,20.714843 -1.33789,20.714843 0,1.4775 1.198984,2.677735 2.677734,2.677735 1.47875,0 2.679688,-1.200235 2.679688,-2.677735 0,1.4775 1.197734,2.677735 2.677734,2.677735 1.064731,0 1.976744,-0.627464 2.408203,-1.527344 C 20.876529,45.775957 22.947468,46.25 23.75,46.25 c 0.801303,0 2.871465,-0.474063 2.947266,-3.580078 0.431851,0.89999 1.344445,1.527344 2.410156,1.527344 1.4775,0 2.677734,-1.200235 2.677734,-2.677735 0,1.4775 1.199688,2.677735 2.679688,2.677735 1.47875,0 2.677734,-1.200235 2.677734,-2.677735 0,0 -1.339844,-14.018593 -1.339844,-20.714843 0,-6.046903 -4.45729,-11.0387854 -10.261718,-11.9062505 C 25.943836,7.5707282 26.25,6.1254419 26.25,5 26.25,2.23875 24.44125,1.25 23.75,1.25 Z M 15.625,22.5 c 1.03625,0 1.875,0.83875 1.875,1.875 0,1.035 -0.83875,1.875 -1.875,1.875 -1.03625,0 -1.875,-0.84 -1.875,-1.875 0,-1.03625 0.83875,-1.875 1.875,-1.875 z m 16.25,0 c 1.035,0 1.875,0.83875 1.875,1.875 0,1.035 -0.84,1.875 -1.875,1.875 C 30.84,26.25 30,25.41 30,24.375 30,23.33875 30.84,22.5 31.875,22.5 Z m -8.125,1.25 c 2.76125,0 8.75,3.75 8.75,5.625 C 32.5,31.25 26.51125,35 23.75,35 20.98875,35 15,31.25 15,29.375 15,27.5 20.98875,23.75 23.75,23.75 Z m 8.595703,5.857422 c -0.448422,0.32093 -1.924926,0.325061 -3.779297,0.511719 -4.739035,0.477022 -12.227666,0.551676 -13.394531,-0.458985 0.38139,0.533871 4.175919,1.476563 8.412109,1.476563 4.387945,0 8.769532,-0.99988 8.769532,-1.515625 0,-0.0048 -0.007,-0.0089 -0.0078,-0.01367 z"
     id="path26"
     inkscape:connector-curvature="0" /></svg>