<svg enable-background="new 0 0 47.5 47.5" viewBox="0 0 47.5 47.5" xmlns="http://www.w3.org/2000/svg"><path d="m23.75 1.25c-.69 0-2.5.98875-2.5 3.75 0 1.1248894.306301 2.5693031.708984 3.8964844-5.805006.8669614-10.263671 5.8608896-10.263672 11.9082036 0 6.696249-1.33789 20.714843-1.33789 20.714843 0 1.4775 1.198984 2.677735 2.677734 2.677735s2.679688-1.200235 2.679688-2.677735c0 1.4775 1.197734 2.677735 2.677734 2.677735 1.064731 0 1.976744-.627464 2.408203-1.527344.075748 3.106035 2.146687 3.580078 2.949219 3.580078.801303 0 2.871465-.474063 2.947266-3.580078.431851.89999 1.344445 1.527344 2.410156 1.527344 1.4775 0 2.677734-1.200235 2.677734-2.677735 0 1.4775 1.199688 2.677735 2.679688 2.677735 1.47875 0 2.677734-1.200235 2.677734-2.677735 0 0-1.339844-14.018593-1.339844-20.714843 0-6.046903-4.45729-11.0387854-10.261718-11.9062505.40282-1.3277093.708984-2.7729956.708984-3.8984375 0-2.76125-1.80875-3.75-2.5-3.75zm-8.125 21.25c1.03625 0 1.875.83875 1.875 1.875 0 1.035-.83875 1.875-1.875 1.875s-1.875-.84-1.875-1.875c0-1.03625.83875-1.875 1.875-1.875zm16.25 0c1.035 0 1.875.83875 1.875 1.875 0 1.035-.84 1.875-1.875 1.875s-1.875-.84-1.875-1.875c0-1.03625.84-1.875 1.875-1.875zm-8.125 1.25c2.76125 0 8.75 3.75 8.75 5.625s-5.98875 5.625-8.75 5.625-8.75-3.75-8.75-5.625 5.98875-5.625 8.75-5.625zm8.595703 5.857422c-.448422.32093-1.924926.325061-3.779297.511719-4.739035.477022-12.227666.551676-13.394531-.458985.38139.533871 4.175919 1.476563 8.412109 1.476563 4.387945 0 8.769532-.99988 8.769532-1.515625 0-.0048-.007-.0089-.0078-.01367z"/></svg>