<svg xmlns="http://www.w3.org/2000/svg" width="74.923" height="113.476"><path d="M18.73 31.332a6.65 6.65 0 0 0-4.716 1.959 6.655 6.655 0 0 0 0 9.432l14.015 14.015-14.015 14.016a6.655 6.655 0 0 0 0 9.432 6.655 6.655 0 0 0 9.431 0L37.461 66.17l14.016 14.016a6.655 6.655 0 0 0 9.431 0 6.655 6.655 0 0 0 0-9.432L46.893 56.738l14.015-14.015a6.655 6.655 0 0 0 0-9.432 6.655 6.655 0 0 0-9.431 0L37.46 47.307 23.445 33.29a6.646 6.646 0 0 0-4.715-1.959z" stroke="#fff" stroke-width="3.659" stroke-linecap="round"/></svg>