<svg height="48" viewBox="0 0 48 48" width="48" xmlns="http://www.w3.org/2000/svg" xmlns:xlink="http://www.w3.org/1999/xlink"><clipPath id="a"><path d="m0 0h48v48h-48z"/></clipPath><path clip-path="url(#a)" d="m24-26.96c-1.33 0-4.8 1.9-4.8 7.2 0 2.16.6 4.93 1.36 7.48-11.16 1.68-23.96-9.78-23.96 1.84 0 12.86 1.68 60.82 1.68 60.82 0 2.83 2.3 5.14 5.14 5.14s5.15-2.3 5.15-5.14c0 2.83 2.3 5.14 5.14 5.14 2.06 0 3.8-1.2 4.64-2.93.14 5.95 4.12 6.86 5.66 6.86s5.5-.9 5.66-6.87c.83 1.7 2.58 2.92 4.63 2.92 2.83 0 5.13-2.3 5.13-5.14 0 2.83 2.3 5.14 5.15 5.14 2.84 0 5.14-2.3 5.14-5.14 0 0 4.14-46.55 4.14-59.4 0-11.62-15.27-1.6-26.42-3.25.77-2.55 1.36-5.33 1.36-7.5 0-5.3-3.47-7.2-4.8-7.2zm-15.6 40.8c2 0 3.6 1.62 3.6 3.6 0 2-1.6 3.6-3.6 3.6s-3.6-1.6-3.6-3.6c0-1.98 1.6-3.6 3.6-3.6zm31.2 0c2 0 3.6 1.62 3.6 3.6 0 2-1.6 3.6-3.6 3.6-1.98 0-3.6-1.6-3.6-3.6 0-1.98 1.62-3.6 3.6-3.6zm-15.6 2.41c5.3 0 16.8 7.2 16.8 10.8s-11.5 10.82-16.8 10.82-16.8-7.2-16.8-10.8 11.5-10.8 16.8-10.8zm16.5 11.25c-.85.62-3.7.62-7.25.98-9.1.92-23.48 1.06-25.72-.88.73 1.03 8.02 2.84 16.15 2.84 8.43 0 16.84-1.92 16.84-2.9v-.04z"/></svg>